<?xml version="1.0" encoding="UTF-8"?>
<svg width="19px" height="19px" viewBox="0 0 19 19" version="1.1" xmlns="http://www.w3.org/2000/svg" xmlns:xlink="http://www.w3.org/1999/xlink">
    <!-- Generator: Sketch 60.1 (88133) - https://sketch.com -->
    <title>search</title>
    <desc>Created with Sketch.</desc>
    <g id="Symbols" stroke="none" stroke-width="1" fill="none" fill-rule="evenodd">
        <g id="header/drip" transform="translate(-336.000000, -16.000000)" fill="#FFFFFF">
            <g id="Header-Nav">
                <path d="M343.376925,27.7368873 C340.875035,27.7368873 338.846924,25.7088192 338.846924,23.2069826 C338.846924,20.7051459 340.875035,18.6770778 343.376925,18.6770778 C345.878815,18.6770778 347.906926,20.7051459 347.906926,23.2069826 L347.906926,23.2069826 C347.91031,25.7054352 345.887614,27.7335033 343.389108,27.7368873 L343.377264,27.7368873 L343.376925,27.7368873 Z M349.416927,27.7368873 L348.621655,27.7368873 L348.339757,27.4661624 C350.696806,24.7199965 350.381405,20.5833196 347.63518,18.2263208 C344.888956,15.8693219 340.752191,16.1847165 338.395142,18.9308824 C336.038094,21.6770483 336.353495,25.8137252 339.099719,28.170724 C341.554569,30.2779791 345.18033,30.2779791 347.63518,28.170724 L347.905911,28.4526163 L347.905911,29.2478708 L352.938794,34.2708333 L354.438642,32.7706789 L349.416927,27.7368873 Z" id="search" transform="translate(345.626632, 25.458333) rotate(-360.000000) translate(-345.626632, -25.458333) "></path>
            </g>
        </g>
    </g>
</svg>