<?xml version="1.0" encoding="UTF-8"?>
<svg width="18px" height="18px" viewBox="0 0 18 18" version="1.1" xmlns="http://www.w3.org/2000/svg" xmlns:xlink="http://www.w3.org/1999/xlink">
    <!-- Generator: Sketch 60.1 (88133) - https://sketch.com -->
    <title>search</title>
    <desc>Created with Sketch.</desc>
    <g id="Symbols" stroke="none" stroke-width="1" fill="none" fill-rule="evenodd">
        <g id="icon/search" fill="#461D09">
            <path d="M6.7022997,11.3270339 C4.14703619,11.3270339 2.07565865,9.2558154 2.07565865,6.70074814 C2.07565865,4.14568088 4.14703619,2.07446242 6.7022997,2.07446242 C9.25756321,2.07446242 11.3289408,4.14568088 11.3289408,6.70074814 L11.3289408,6.70074814 C11.3323971,9.25235934 9.26654966,11.3235778 6.71474248,11.3270339 L6.70264534,11.3270339 L6.7022997,11.3270339 Z M12.8711544,11.3270339 L12.0589173,11.3270339 L11.7710051,11.0505488 C14.1783378,8.24595384 13.856208,4.02126262 11.0513976,1.61411484 C8.24658719,-0.793032926 4.02157148,-0.470927869 1.61423882,2.33366713 C-0.793093837,5.13826213 -0.47096404,9.36295335 2.33384637,11.7701011 C4.84106692,13.9221915 8.54417705,13.9221915 11.0513976,11.7701011 L11.3279039,12.0579912 L11.3279039,12.8701659 L16.4681553,18 L18,16.4679273 L12.8711544,11.3270339 Z" id="search" transform="translate(9.000000, 9.000000) rotate(-360.000000) translate(-9.000000, -9.000000) "></path>
        </g>
    </g>
</svg>