<?xml version="1.0" encoding="UTF-8"?>
<svg width="20px" height="18px" viewBox="0 0 20 18" version="1.1" xmlns="http://www.w3.org/2000/svg" xmlns:xlink="http://www.w3.org/1999/xlink">
    <!-- Generator: Sketch 61.1 (89650) - https://sketch.com -->
    <title>Close</title>
    <desc>Created with Sketch.</desc>
    <g id="Symbols" stroke="none" stroke-width="1" fill="none" fill-rule="evenodd">
        <g id="nav/expanded" transform="translate(-18.000000, -19.000000)" fill="#461D09">
            <g id="Navigation-Menu-Expanded">
                <g id="Close" transform="translate(18.000000, 18.000000)">
                    <path d="M-2.55915302,9.99666841 C-2.57690971,10.7957194 -1.94238469,11.4290578 -1.14633127,11.4113677 L20.2245921,10.9364583 C21.0226287,10.9187242 21.683822,10.262794 21.7017165,9.45753797 L21.6895878,10.0033316 C21.7073445,9.20428057 21.0728195,8.57094218 20.2767661,8.58863225 L-1.09415736,9.06354166 C-1.89219395,9.08127581 -2.55338719,9.73720597 -2.57128176,10.542462 L-2.55915302,9.99666841 Z" id="Path" transform="translate(9.565217, 10.000000) rotate(-45.000000) translate(-9.565217, -10.000000) "></path>
                    <path d="M-1.56551229,9.45753797 C-1.5477556,10.256589 -0.884441308,10.9187683 -0.0883878876,10.9364583 L21.2825355,11.4113677 C22.0805721,11.4291019 22.7132519,10.8019245 22.6953573,9.99666841 L22.707486,10.542462 C22.6897293,9.74341101 22.026415,9.08123174 21.2303616,9.06354166 L-0.140561801,8.58863225 C-0.938598394,8.57089811 -1.57127812,9.19807553 -1.55338355,10.0033316 L-1.56551229,9.45753797 Z" id="Path" transform="translate(10.570987, 10.000000) rotate(-315.000000) translate(-10.570987, -10.000000) "></path>
                </g>
            </g>
        </g>
    </g>
</svg>