<?xml version="1.0" encoding="UTF-8"?>
<svg width="38px" height="38px" viewBox="0 0 38 38" version="1.1" xmlns="http://www.w3.org/2000/svg" xmlns:xlink="http://www.w3.org/1999/xlink">
    <!-- Generator: Sketch 60.1 (88133) - https://sketch.com -->
    <title>Facebook</title>
    <desc>Created with Sketch.</desc>
    <g id="Symbols" stroke="none" stroke-width="1" fill="none" fill-rule="evenodd">
        <g id="footer" transform="translate(-152.000000, -73.000000)">
            <g id="Social" transform="translate(26.000000, 32.000000)">
                <g id="Group" transform="translate(0.000000, 40.000000)">
                    <g id="Facebook" transform="translate(126.000000, 1.000000)">
                        <path d="M19,0 C8.50645833,0 0,8.50645833 0,19 C0,29.4935417 8.50645833,38 19,38 C29.4935417,38 38,29.4935417 38,19 C38,8.50645833 29.4935417,0 19,0 Z" id="Path-Copy" fill="#FFE9C4"></path>
                        <path d="M16.1752984,16.592216 C16.2207779,16.4745831 16.1986019,16.3427144 16.1989778,16.2145919 C16.2027364,15.251051 16.1989778,14.28751 16.2053675,13.3239691 C16.203843,12.5844985 16.336266,11.8508271 16.596266,11.1582498 C17.2021586,9.56870696 18.3605712,8.59992126 20.0023448,8.18520905 C20.5499785,8.04734627 21.1088881,8.00651192 21.6708047,8.00314027 C22.4717707,7.99827012 23.2701056,8.00051788 24.0699441,8.00051788 C24.141458,7.99913395 24.2129923,8.00188584 24.2841865,8.00875968 C24.6333641,8.04622239 24.8400892,8.26500462 24.865648,8.61902724 C24.8697825,8.67821833 24.865648,8.73815866 24.865648,8.79772437 L24.865648,11.1185393 C24.865648,11.1305274 24.865648,11.1421408 24.865648,11.156002 C24.8607617,11.7179427 24.6577952,11.9179936 24.0797165,11.9221145 C23.6023693,11.9254861 23.1246463,11.9183682 22.647675,11.9341025 C22.3627702,11.9430936 22.0729791,11.9592025 21.7963432,12.0206414 C21.0570189,12.1851027 20.6725101,12.6264134 20.5853097,13.3771662 C20.5609472,13.5898502 20.5483992,13.8037139 20.5477233,14.0177785 C20.5432129,14.7910089 20.5447164,15.5646138 20.5477233,16.3378442 C20.5518523,16.4256272 20.5603825,16.5131494 20.573282,16.6000832 C20.7209966,16.6750086 20.8544283,16.6469116 20.9833496,16.6472862 C22.0219869,16.649534 23.0603736,16.649534 24.0985097,16.6472862 C24.2060068,16.6472862 24.3135039,16.6472862 24.421001,16.6517817 C24.8367064,16.6693892 25.0306522,17.0500103 24.9960727,17.3321045 C24.9468346,17.7333302 24.901355,18.1349304 24.8539962,18.5365307 C24.7893476,19.07974 24.7243231,19.6228244 24.6589228,20.165784 C24.6416331,20.307393 24.6273502,20.4505006 24.5961535,20.5891126 C24.5378946,20.8468561 24.3706352,21.0049487 24.1075305,21.0476562 C23.9893037,21.0631096 23.8700158,21.068998 23.7508356,21.0652637 C22.8318483,21.0652637 21.912861,21.0652637 20.9938738,21.0652637 C20.8653283,21.0652637 20.7371587,21.0746294 20.5849338,21.0802488 C20.5781683,21.2199847 20.56802,21.3357445 20.5676441,21.4515042 C20.5646372,22.0698887 20.5628831,22.688523 20.562382,23.3074069 C20.5588739,25.6982772 20.5553659,28.0893971 20.5518578,30.4807668 C20.5518578,30.6444789 20.5657648,30.8111879 20.5142714,30.9677821 C20.4758756,30.9826442 20.4358991,30.9930768 20.3951226,30.9988761 C19.0465228,31.0003746 17.6979231,31.0003746 16.3493234,30.9988761 C16.3067208,30.9922993 16.2649906,30.98099 16.2249124,30.9651597 C16.217771,30.8651342 16.203864,30.7621118 16.203864,30.6587147 C16.203864,29.0170987 16.2052422,27.3754827 16.2079985,25.7338667 C16.2079985,24.2942996 16.2093767,22.8547325 16.212133,21.4151654 L16.212133,21.1570473 C16.1050118,21.0382905 15.991125,21.0678861 15.8888901,21.0675115 C15.220604,21.0645144 14.5519421,21.0675115 13.8836561,21.0675115 C13.7881866,21.0675115 13.6923413,21.0708831 13.5976236,21.061892 C13.2631047,21.0289249 13.0575072,20.8270008 13.0150346,20.4909603 C13.0081945,20.4198732 13.0056841,20.3484382 13.0075173,20.2770483 C13.0045104,19.3254954 13,18.3739425 13,17.4220151 C13,16.8529565 13.2033424,16.6514071 13.7765349,16.6487847 C14.4568485,16.6461623 15.1375381,16.6487847 15.8178518,16.6487847 C15.9339937,16.6461623 16.0572771,16.6757579 16.1752984,16.592216 Z" id="Path" fill="#461D09" fill-rule="nonzero"></path>
                    </g>
                </g>
            </g>
        </g>
    </g>
</svg>