<?xml version="1.0" encoding="UTF-8"?>
<svg width="38px" height="38px" viewBox="0 0 38 38" version="1.1" xmlns="http://www.w3.org/2000/svg" xmlns:xlink="http://www.w3.org/1999/xlink">
    <!-- Generator: Sketch 60.1 (88133) - https://sketch.com -->
    <title>Instagram</title>
    <desc>Created with Sketch.</desc>
    <g id="Symbols" stroke="none" stroke-width="1" fill="none" fill-rule="evenodd">
        <g id="footer" transform="translate(-26.000000, -73.000000)">
            <g id="Social" transform="translate(26.000000, 32.000000)">
                <g id="Group" transform="translate(0.000000, 40.000000)">
                    <g id="Instagram" transform="translate(0.000000, 1.000000)">
                        <circle id="Oval" fill="#461D09" cx="19" cy="19" r="16"></circle>
                        <path d="M19,21.7874583 C20.5382083,21.7874583 21.7874583,20.5382083 21.7874583,19 C21.7874583,17.4617917 20.5382083,16.2125417 19,16.2125417 C17.461,16.2125417 16.2125417,17.4617917 16.2125417,19 C16.2125417,20.5382083 17.461,21.7874583 19,21.7874583 Z M25.01825,13.6237917 C25.8582083,13.6237917 26.5366667,12.94375 26.5366667,12.1061667 C26.5366667,11.267 25.8582083,10.5885417 25.01825,10.5885417 C24.1806667,10.5885417 23.5014167,11.267 23.5014167,12.1061667 C23.5014167,12.94375 24.1806667,13.6237917 25.01825,13.6237917 Z M24.5749167,19 C24.5749167,22.0787917 22.0787917,24.5749167 19,24.5749167 C15.9212083,24.5749167 13.4250833,22.0787917 13.4250833,19 C13.4250833,18.3524167 13.5414583,17.73175 13.7449167,17.15225 L11.0500833,17.15225 L11.0500833,24.7087083 C11.0500833,26.013375 12.1180417,27.0813333 13.4235,27.0813333 L24.1814583,27.0813333 C25.486125,27.0813333 26.5540833,26.013375 26.5540833,24.7087083 L26.5540833,14.77725 L22.63375,14.77725 C23.8204583,15.8000833 24.5749167,17.3105833 24.5749167,19 Z M19,0 C8.50645833,0 0,8.50645833 0,19 C0,29.4935417 8.50645833,38 19,38 C29.4935417,38 38,29.4935417 38,19 C38,8.50645833 29.4935417,0 19,0 Z M29.1444167,26.7045 C29.1444167,28.445375 27.7202083,29.8711667 25.97775,29.8711667 L11.625625,29.8711667 C9.88395833,29.8711667 8.45895833,28.445375 8.45895833,26.7045 L8.45895833,12.3507917 C8.45895833,10.6083333 9.88395833,9.184125 11.625625,9.184125 L25.9793333,9.184125 C27.7202083,9.184125 29.146,10.6083333 29.146,12.3507917 L29.146,26.7045 L29.1444167,26.7045 Z" id="Shape" fill="#FFE9C4" fill-rule="nonzero"></path>
                    </g>
                </g>
            </g>
        </g>
    </g>
</svg>