<?xml version="1.0" encoding="UTF-8"?>
<svg width="46px" height="47px" viewBox="0 0 46 47" version="1.1" xmlns="http://www.w3.org/2000/svg" xmlns:xlink="http://www.w3.org/1999/xlink">
    <!-- Generator: Sketch 60.1 (88133) - https://sketch.com -->
    <title>Pinterest</title>
    <desc>Created with Sketch.</desc>
    <defs>
        <path d="M19,0 C8.50645833,0 0,8.50645833 0,19 C0,29.4935417 8.50645833,38 19,38 C29.4935417,38 38,29.4935417 38,19 C38,8.50645833 29.4935417,0 19,0 Z" id="path-1"></path>
        <filter x="-22.4%" y="-11.8%" width="144.7%" height="147.4%" filterUnits="objectBoundingBox" id="filter-2">
            <feMorphology radius="2" operator="erode" in="SourceAlpha" result="shadowSpreadOuter1"></feMorphology>
            <feOffset dx="0" dy="5" in="shadowSpreadOuter1" result="shadowOffsetOuter1"></feOffset>
            <feGaussianBlur stdDeviation="4" in="shadowOffsetOuter1" result="shadowBlurOuter1"></feGaussianBlur>
            <feColorMatrix values="0 0 0 0 0.274509804   0 0 0 0 0.11372549   0 0 0 0 0.0352941176  0 0 0 0.5 0" type="matrix" in="shadowBlurOuter1"></feColorMatrix>
        </filter>
    </defs>
    <g id="Symbols" stroke="none" stroke-width="1" fill="none" fill-rule="evenodd">
        <g id="footer" transform="translate(-211.000000, -73.000000)">
            <g id="Social" transform="translate(26.000000, 32.000000)">
                <g id="Group" transform="translate(0.000000, 40.000000)">
                    <g id="Pinterest" transform="translate(189.000000, 1.000000)">
                        <g id="Path-Copy-2">
                            <use fill="black" fill-opacity="1" filter="url(#filter-2)" xlink:href="#path-1"></use>
                            <use fill="#FFE9C4" fill-rule="evenodd" xlink:href="#path-1"></use>
                        </g>
                        <path d="M17.5445648,23.348248 C17.5035627,23.5108242 17.4683009,23.6574962 17.4334492,23.8054935 C17.1710357,24.9099512 16.9176427,26.0183849 16.6453888,27.1188665 C16.2665294,28.6505283 15.5223413,29.985155 14.6813882,31.2641169 C14.5391109,31.4801489 14.3943735,31.6948554 14.2348753,31.8954249 C14.1844428,31.9581581 14.0749671,32.0124975 14.0060836,31.9974768 C13.9486807,31.9851069 13.8797972,31.8711269 13.8691366,31.7933731 C13.6571557,30.2104643 13.5575206,28.6204871 13.8059934,27.0340441 C13.9380201,26.1875878 14.1442607,25.3552685 14.3259,24.5158807 C14.7461715,22.5817544 15.1738234,20.645861 15.5928649,18.707317 C15.6071958,18.6117887 15.5969865,18.5138562 15.5633434,18.424134 C15.1254409,17.1168979 15.0434367,15.7981755 15.5194711,14.4812202 C15.7851647,13.7456514 16.2165068,13.1465936 16.8922214,12.7927253 C17.6077081,12.4185351 18.464652,12.5179363 18.9935791,13.0432163 C19.3703884,13.4174066 19.5315266,13.9060187 19.5770389,14.4436686 C19.6323918,15.1032508 19.5056953,15.7403019 19.3412769,16.3676339 C19.0641027,17.4230536 18.7697076,18.4727302 18.4867931,19.5263828 C18.3719872,19.9531452 18.3022837,20.385209 18.3908482,20.8314099 C18.5765877,21.7693154 19.2961746,22.4660073 20.202731,22.5685009 C21.178991,22.6811556 21.9871424,22.291503 22.6747476,21.574489 C23.3832639,20.8362695 23.8228064,19.9182443 24.1405727,18.9295339 C24.5013911,17.8113809 24.6674496,16.6547929 24.712552,15.4743485 C24.7441236,14.6349607 24.6912309,13.8092682 24.4349677,13.0105244 C23.9388423,11.4642837 22.9588921,10.4070968 21.5336592,9.88976883 C19.6192711,9.19572764 17.7175937,9.2933617 15.9237518,10.3253669 C13.9679517,11.4501466 12.9305985,13.2764778 12.6706452,15.6316233 C12.6047687,16.2076096 12.6226137,16.7911396 12.7235379,17.361204 C12.8432641,18.0238786 13.0925568,18.6251453 13.506268,19.1314287 C13.7334197,19.4084267 13.7961529,19.6920514 13.6915975,20.0441525 C13.5936025,20.3741645 13.5275891,20.7156628 13.4484551,21.0514179 C13.3406195,21.5002695 13.0818963,21.6363387 12.685406,21.4490227 C11.6988955,20.9824997 11.0153904,20.1859649 10.5942989,19.1345212 C9.89111287,17.3669472 9.81935919,15.5437085 10.3396758,13.7151684 C11.1187157,10.9716956 12.7944716,9.06716877 15.2140055,7.91146428 C16.4219273,7.33582095 17.6991428,7.07561073 19.0144901,7.01287753 C20.4335728,6.94528473 21.8169837,7.13746036 23.1302809,7.73961067 C25.4645305,8.81137638 27.0533618,10.6182691 27.759008,13.2733853 C28.0144511,14.2355888 28.032082,15.2194397 27.9697588,16.2099173 C27.8635633,17.9019464 27.504795,19.5232903 26.7585567,21.0253527 C26.0955528,22.3613047 25.1971968,23.468413 23.9564732,24.2101668 C22.7005789,24.961198 21.3577601,25.274864 19.9308871,24.9841707 C19.1133052,24.8180603 18.3945384,24.4182466 17.8270693,23.7427603 C17.7286643,23.6265714 17.6470701,23.4931529 17.5445648,23.348248 Z" id="Path" fill="#461D09" fill-rule="nonzero"></path>
                        <g id="Asset-3" transform="translate(10.000000, 7.000000)"></g>
                    </g>
                </g>
            </g>
        </g>
    </g>
</svg>