<?xml version="1.0" encoding="UTF-8"?>
<svg width="38px" height="39px" viewBox="0 0 38 39" version="1.1" xmlns="http://www.w3.org/2000/svg" xmlns:xlink="http://www.w3.org/1999/xlink">
    <!-- Generator: Sketch 60.1 (88133) - https://sketch.com -->
    <title>Twitter</title>
    <desc>Created with Sketch.</desc>
    <g id="Symbols" stroke="none" stroke-width="1" fill="none" fill-rule="evenodd">
        <g id="footer" transform="translate(-89.000000, -72.000000)">
            <g id="Social" transform="translate(26.000000, 32.000000)">
                <g id="Group" transform="translate(0.000000, 40.000000)">
                    <g id="Twitter" transform="translate(63.000000, 0.000000)">
                        <path d="M19,0.625 C8.50645833,0.625 0,9.13145833 0,19.625 C0,30.1185417 8.50645833,38.625 19,38.625 C29.4935417,38.625 38,30.1185417 38,19.625 C38,9.13145833 29.4935417,0.625 19,0.625 Z" id="Path" fill="#FFE9C4"></path>
                        <g id="noun_Bird_202393" transform="translate(20.000000, 20.125000) scale(-1, 1) translate(-20.000000, -20.125000) translate(8.000000, 9.625000)" fill="#461D09" fill-rule="nonzero">
                            <path d="M20.3086625,2.69266209 L12.7506998,8.67507236 C13.9295803,7.62508432 14.5921215,6.07837777 14.4021621,4.43374741 C14.0364003,1.27301168 10.3229266,-0.809093297 7.3417488,0.302341929 C5.40019948,1.0267333 4.18708508,2.56487152 3.50292253,4.36740403 L3.50343733,4.36348707 L0,4.73045655 L2.88053539,6.92713238 C2.73716498,8.05692832 2.74437211,9.19333411 2.86380455,10.2254511 C3.63213608,16.8663989 9.91572377,21.6573213 16.8984031,20.92632 C19.6450918,20.6389137 22.090368,19.5394741 24,17.9078186 C22.9163565,17.1019057 20.52848,15.3143066 19.3411053,14.3624872 C25.1562296,9.16150888 20.3086625,2.69266209 20.3086625,2.69266209 Z M8.73195268,5.8247551 C8.05679905,5.89550506 7.44908356,5.43208063 7.37469568,4.78994526 C7.3005652,4.14756508 7.78781866,3.56981461 8.4627149,3.49906465 C9.13786853,3.42855951 9.74558402,3.89173913 9.8199719,4.53436412 C9.89410238,5.17649949 9.40710632,5.75400515 8.73195268,5.8247551 Z" id="Shape"></path>
                        </g>
                    </g>
                </g>
            </g>
        </g>
    </g>
</svg>